<svg width="31" height="30" viewBox="0 0 31 30" fill="none" xmlns="http://www.w3.org/2000/svg">
<path d="M20.5 13.125C20.5 14.1605 19.9404 15 19.25 15C18.5596 15 18 14.1605 18 13.125C18 12.0895 18.5596 11.25 19.25 11.25C19.9404 11.25 20.5 12.0895 20.5 13.125Z" fill="white"/>
<path d="M13 13.125C13 14.1605 12.4404 15 11.75 15C11.0597 15 10.5 14.1605 10.5 13.125C10.5 12.0895 11.0597 11.25 11.75 11.25C12.4404 11.25 13 12.0895 13 13.125Z" fill="white"/>
<path fill-rule="evenodd" clip-rule="evenodd" d="M15.4282 1.5625H15.5717C18.4572 1.56249 20.7185 1.56248 22.4829 1.79969C24.2887 2.04249 25.7139 2.54916 26.8324 3.66768C27.9509 4.78619 28.4575 6.21121 28.7004 8.01714C28.9375 9.78149 28.9375 12.0428 28.9375 14.9282V15.0717C28.9375 17.9572 28.9375 20.2185 28.7004 21.9829C28.4575 23.7887 27.9509 25.2139 26.8324 26.3324C25.7139 27.4509 24.2887 27.9575 22.4829 28.2004C20.7185 28.4375 18.4572 28.4375 15.5717 28.4375H15.4282C12.5428 28.4375 10.2815 28.4375 8.51714 28.2004C6.71121 27.9575 5.28619 27.4509 4.16768 26.3324C3.04916 25.2139 2.54249 23.7887 2.29969 21.9829C2.06248 20.2185 2.06249 17.9572 2.0625 15.0717V14.9282C2.06249 12.0428 2.06248 9.78149 2.29969 8.01714C2.54249 6.21121 3.04916 4.78619 4.16768 3.66768C5.28619 2.54916 6.71121 2.04249 8.51714 1.79969C10.2815 1.56248 12.5428 1.56249 15.4282 1.5625ZM8.76697 3.65796C7.16896 3.87281 6.20556 4.28143 5.4935 4.9935C4.78143 5.70556 4.37281 6.66896 4.15796 8.26697C3.93949 9.89195 3.9375 12.0272 3.9375 15C3.9375 17.9727 3.93949 20.108 4.15796 21.733C4.37281 23.331 4.78143 24.2944 5.4935 25.0065C6.20556 25.7186 7.16896 26.1272 8.76697 26.342C10.3919 26.5605 12.5272 26.5625 15.5 26.5625C18.4727 26.5625 20.608 26.5605 22.233 26.342C23.831 26.1272 24.7944 25.7186 25.5065 25.0065C26.2186 24.2944 26.6272 23.331 26.842 21.733C27.0605 20.108 27.0625 17.9727 27.0625 15C27.0625 12.0272 27.0605 9.89195 26.842 8.26697C26.6272 6.66896 26.2186 5.70556 25.5065 4.9935C24.7944 4.28143 23.831 3.87281 22.233 3.65796C20.608 3.43949 18.4727 3.4375 15.5 3.4375C12.5272 3.4375 10.3919 3.43949 8.76697 3.65796ZM11.1917 20.4969C12.4072 19.5959 13.8937 19.0625 15.5 19.0625C17.1062 19.0625 18.5927 19.5959 19.8082 20.4969C20.2242 20.8051 20.3115 21.3922 20.0031 21.8082C19.6949 22.2242 19.1077 22.3115 18.6917 22.0031C17.7812 21.3284 16.6824 20.9375 15.5 20.9375C14.3176 20.9375 13.2187 21.3284 12.3083 22.0031C11.8923 22.3115 11.3052 22.2242 10.9968 21.8082C10.6885 21.3922 10.7758 20.8051 11.1917 20.4969Z" fill="white"/>
</svg>
