<svg width="28" height="28" viewBox="0 0 28 28" fill="none" xmlns="http://www.w3.org/2000/svg">
<path d="M10.4414 5.76048C12.0247 2.92016 12.8164 1.5 14 1.5C15.1836 1.5 15.9752 2.92015 17.5585 5.76046L17.9681 6.49529C18.4181 7.30241 18.643 7.70599 18.9939 7.97226C19.3446 8.23854 19.7814 8.33737 20.6551 8.53506L21.4506 8.71504C24.5251 9.4107 26.0625 9.75853 26.4282 10.9347C26.794 12.1108 25.746 13.3364 23.6499 15.7874L23.1076 16.4215C22.512 17.118 22.2141 17.4662 22.0801 17.8971C21.9462 18.328 21.9912 18.7926 22.0812 19.722L22.1632 20.568C22.4801 23.8383 22.6386 25.4734 21.6811 26.2003C20.7235 26.9271 19.2841 26.2644 16.4054 24.939L15.6606 24.596C14.8426 24.2194 14.4336 24.031 14 24.031C13.5664 24.031 13.1574 24.2194 12.3394 24.596L11.5946 24.939C8.71584 26.2644 7.27646 26.9271 6.31892 26.2003C5.36139 25.4734 5.51984 23.8383 5.83674 20.568L5.91871 19.722C6.00877 18.7926 6.0538 18.328 5.91981 17.8971C5.78584 17.4662 5.48802 17.118 4.89239 16.4215L4.35011 15.7874C2.25405 13.3364 1.20601 12.1108 1.57176 10.9347C1.93751 9.75853 3.47481 9.4107 6.54941 8.71504L7.34485 8.53506C8.21855 8.33737 8.6554 8.23854 9.00616 7.97226C9.35692 7.70599 9.5819 7.30243 10.0318 6.49529L10.4414 5.76048Z" fill="#7F6EEE" stroke="#6956E5" stroke-width="3"/>
</svg>
